<svg version="1.1" xmlns="http://www.w3.org/2000/svg" viewBox="0 0 879 434.076923076923" width="879" height="434.076923076923">
  <!-- svg-source:excalidraw -->
  
  <defs>
    <style class="style-fonts">
      @font-face {
        font-family: "Virgil";
        src: url("https://excalidraw.com/Virgil.woff2");
      }
      @font-face {
        font-family: "Cascadia";
        src: url("https://excalidraw.com/Cascadia.woff2");
      }
    </style>
    
  </defs>
  <g stroke-linecap="round" transform="translate(10 309.53846153846143) rotate(0 60 56.53846153846155)"><path d="M66.89 1.12 C75.9 1.34, 86.11 5.44, 93.77 10.19 C101.43 14.94, 108.47 22.13, 112.86 29.63 C117.25 37.12, 119.96 46.28, 120.11 55.17 C120.25 64.06, 118.14 75.09, 113.74 82.97 C109.34 90.84, 101.44 97.58, 93.7 102.44 C85.97 107.3, 76.39 110.83, 67.35 112.13 C58.3 113.43, 48.19 113.32, 39.45 110.23 C30.7 107.14, 21.1 100.13, 14.86 93.59 C8.63 87.04, 4.21 79.44, 2.04 70.99 C-0.14 62.54, -0.13 51.45, 1.82 42.88 C3.77 34.3, 7.7 25.99, 13.73 19.54 C19.77 13.08, 28.61 7.18, 38.04 4.15 C47.47 1.12, 64.53 1.77, 70.32 1.38 C76.12 0.99, 73.08 1, 72.83 1.8 M68.6 -0.69 C77.49 -0.03, 89.4 7.09, 97.24 12.75 C105.09 18.41, 112.14 25.62, 115.68 33.25 C119.23 40.88, 118.9 50.12, 118.52 58.52 C118.14 66.92, 117.82 76.06, 113.41 83.64 C108.99 91.22, 100.12 98.98, 92.03 103.99 C83.95 109, 74.08 112.99, 64.92 113.68 C55.76 114.36, 45.43 111.47, 37.07 108.09 C28.71 104.71, 20.65 100.27, 14.75 93.41 C8.86 86.55, 3.65 75.79, 1.71 66.92 C-0.22 58.05, 0.64 48.28, 3.16 40.18 C5.68 32.09, 10.49 24.76, 16.85 18.34 C23.21 11.93, 32.73 4.58, 41.32 1.71 C49.91 -1.16, 63.77 1.29, 68.38 1.11 C72.98 0.94, 69.05 -0.45, 68.96 0.64" stroke="#1e1e1e" stroke-width="1" fill="none"/></g><g transform="translate(49.7735938917466 341.427140893643) rotate(0 20.299999237060547 24.671052631578902)"><text x="20.299999237060547" y="0" font-family="Virgil, Segoe UI Emoji" font-size="19.736842105263143px" fill="#1e1e1e" text-anchor="middle" style="white-space: pre;" direction="ltr" dominant-baseline="text-before-edge">EOA</text><text x="20.299999237060547" y="24.67105263157893" font-family="Virgil, Segoe UI Emoji" font-size="19.736842105263143px" fill="#1e1e1e" text-anchor="middle" style="white-space: pre;" direction="ltr" dominant-baseline="text-before-edge">#1</text></g><g stroke-linecap="round"><g transform="translate(83 309.53846153846143) rotate(0 26.330485607156902 -93.79897820241749)"><path d="M0.81 -0.09 C9.19 -13.5, 44.27 -50.22, 51.09 -81.46 C57.9 -112.69, 43.26 -170.08, 41.7 -187.5 M-0.22 -1.19 C8.02 -14.34, 43.87 -49.28, 50.71 -80.16 C57.54 -111.04, 42.26 -168.47, 40.78 -186.45" stroke="#1e1e1e" stroke-width="1" fill="none"/></g><g transform="translate(83 309.53846153846143) rotate(0 26.330485607156902 -93.79897820241749)"><path d="M55.29 -158.47 C49.51 -170.29, 44.05 -179.82, 42.41 -186.77 M54.8 -160.16 C50.17 -170.09, 44.51 -179.12, 41.7 -186.37" stroke="#1e1e1e" stroke-width="1" fill="none"/></g><g transform="translate(83 309.53846153846143) rotate(0 26.330485607156902 -93.79897820241749)"><path d="M35.04 -155.17 C36.73 -168.34, 38.71 -179.08, 42.41 -186.77 M34.54 -156.86 C36.93 -167.79, 38.27 -177.96, 41.7 -186.37" stroke="#1e1e1e" stroke-width="1" fill="none"/></g></g><mask/><g stroke-linecap="round" transform="translate(54 10.000000000000028) rotate(0 60 56.53846153846153)"><path d="M49.43 0.48 C58.14 -1.7, 69.62 -0.25, 78.53 2.61 C87.45 5.46, 96.3 11.24, 102.9 17.63 C109.5 24.01, 115.32 32.79, 118.14 40.91 C120.96 49.04, 121.63 58, 119.82 66.39 C118.01 74.78, 113.3 84.34, 107.28 91.24 C101.27 98.13, 92.17 104.27, 83.73 107.76 C75.3 111.25, 65.84 112.82, 56.66 112.17 C47.48 111.53, 36.6 108.38, 28.66 103.91 C20.71 99.44, 13.74 92.69, 8.99 85.35 C4.24 78.01, 0.67 68.71, 0.17 59.86 C-0.34 51.01, 2.16 40.25, 5.94 32.25 C9.73 24.26, 14.61 17.25, 22.88 11.87 C31.15 6.5, 49.17 1.79, 55.57 0.01 C61.98 -1.78, 61.09 0.22, 61.32 1.15 M36.23 5.93 C43.64 2.11, 54.31 0.86, 63.49 1.44 C72.66 2.02, 83.16 5.01, 91.3 9.4 C99.45 13.79, 107.5 20.36, 112.34 27.79 C117.17 35.22, 119.9 45.06, 120.29 53.97 C120.69 62.89, 118.5 73.54, 114.72 81.29 C110.95 89.03, 104.94 95.41, 97.63 100.42 C90.33 105.44, 80.42 109.85, 70.92 111.38 C61.42 112.91, 49.73 111.99, 40.62 109.62 C31.51 107.25, 22.61 103.17, 16.25 97.17 C9.9 91.16, 4.93 82.16, 2.49 73.59 C0.05 65.03, 0.04 54.59, 1.61 45.79 C3.18 36.99, 5.95 27.43, 11.9 20.79 C17.85 14.14, 33.38 8.18, 37.31 5.92 C41.24 3.65, 35.29 6.64, 35.47 7.2" stroke="#1e1e1e" stroke-width="1" fill="none"/></g><g transform="translate(98.39025973189553 44.059731986760596) rotate(0 15.683333396911621 22.5)"><text x="15.683333396911621" y="0" font-family="Virgil, Segoe UI Emoji" font-size="36px" fill="#1e1e1e" text-anchor="middle" style="white-space: pre;" direction="ltr" dominant-baseline="text-before-edge">∅</text></g><g stroke-linecap="round" transform="translate(684 310.9999999999999) rotate(0 60 56.53846153846155)"><path d="M38.05 4.57 C45.66 0.56, 56.12 0.08, 65.19 0.72 C74.27 1.37, 84.63 3.81, 92.48 8.45 C100.32 13.08, 107.82 20.73, 112.24 28.52 C116.67 36.32, 118.72 46.42, 119.01 55.2 C119.3 63.99, 117.84 73.39, 113.98 81.24 C110.13 89.1, 103.52 97.13, 95.88 102.33 C88.23 107.54, 77.38 111.18, 68.12 112.49 C58.85 113.79, 48.94 113.11, 40.3 110.19 C31.66 107.26, 22.81 101.27, 16.29 94.94 C9.78 88.6, 3.65 80.58, 1.19 72.17 C-1.27 63.77, -0.78 53.28, 1.52 44.51 C3.81 35.73, 8.1 26.49, 14.97 19.53 C21.83 12.57, 37.23 5.7, 42.71 2.75 C48.2 -0.21, 47.75 1.09, 47.88 1.82 M85.09 5.35 C93.73 7.55, 102.5 13.59, 108.31 20.25 C114.13 26.9, 118.46 36.34, 119.96 45.31 C121.47 54.28, 120.42 65.57, 117.35 74.08 C114.29 82.59, 107.97 90.22, 101.58 96.37 C95.19 102.51, 87.86 108.26, 79.02 110.93 C70.18 113.59, 57.91 114.17, 48.54 112.34 C39.18 110.52, 29.94 105.58, 22.82 99.99 C15.7 94.4, 9.79 86.81, 5.84 78.79 C1.88 70.78, -1.55 60.66, -0.92 51.88 C-0.29 43.11, 4.9 33.62, 9.64 26.16 C14.38 18.7, 19.78 11.28, 27.51 7.11 C35.24 2.94, 46.52 1.52, 56.04 1.14 C65.55 0.75, 79.78 3.75, 84.59 4.78 C89.4 5.82, 85.54 6.25, 84.89 7.35" stroke="#1e1e1e" stroke-width="1" fill="none"/></g><g transform="translate(728.3902597318956 345.0597319867604) rotate(0 15.683333396911621 22.5)"><text x="15.683333396911621" y="0" font-family="Virgil, Segoe UI Emoji" font-size="36px" fill="#1e1e1e" text-anchor="middle" style="white-space: pre;" direction="ltr" dominant-baseline="text-before-edge">∅</text></g><g stroke-linecap="round"><g transform="translate(773.6695143928432 318.3374397408793) rotate(0 26.313776313245967 -92.96051070475704)"><path d="M-0.57 -0.64 C7.45 -14.26, 42.22 -50.37, 49.04 -81.23 C55.86 -112.1, 41.46 -168.08, 40.37 -185.84 M1.33 1.64 C9.64 -11.84, 44.35 -48.29, 51.25 -79.82 C58.15 -111.35, 44.67 -169.68, 42.75 -187.56" stroke="#1e1e1e" stroke-width="1" fill="none"/></g><g transform="translate(773.6695143928432 318.3374397408793) rotate(0 26.313776313245967 -92.96051070475704)"><path d="M56.23 -162.92 C51.32 -172.91, 48.21 -179.25, 41.47 -186.39 M57.72 -161.96 C54.13 -166.16, 50.89 -172.69, 43.53 -187.8" stroke="#1e1e1e" stroke-width="1" fill="none"/></g><g transform="translate(773.6695143928432 318.3374397408793) rotate(0 26.313776313245967 -92.96051070475704)"><path d="M35.96 -159.71 C38.66 -170.81, 43.19 -178.36, 41.47 -186.39 M37.46 -158.75 C38.05 -163.64, 39.02 -170.84, 43.53 -187.8" stroke="#1e1e1e" stroke-width="1" fill="none"/></g></g><mask/><g stroke-linecap="round" transform="translate(749 16.00000000000003) rotate(0 60 56.53846153846153)"><path d="M52.37 0.92 C61.15 -0.72, 72.61 1.87, 81.45 4.82 C90.29 7.77, 99.17 12.22, 105.4 18.59 C111.64 24.96, 116.58 34.53, 118.84 43.04 C121.11 51.56, 121.33 61.02, 119.01 69.68 C116.69 78.35, 111.28 88.3, 104.9 95.03 C98.53 101.76, 89.61 107.15, 80.75 110.06 C71.89 112.97, 60.83 113.57, 51.76 112.49 C42.69 111.41, 33.79 108.77, 26.34 103.58 C18.88 98.4, 11.32 89.28, 7.05 81.38 C2.78 73.48, 0.58 64.65, 0.72 56.17 C0.85 47.69, 3.67 38.22, 7.86 30.48 C12.04 22.74, 16.28 14.86, 25.84 9.72 C35.39 4.58, 56.7 0.69, 65.16 -0.35 C73.62 -1.38, 76.64 2.67, 76.6 3.53 M40.54 2.19 C48.09 -1.69, 57.35 -0.68, 66.27 0.51 C75.18 1.69, 86.03 4.51, 94.05 9.29 C102.08 14.08, 110.1 21.09, 114.42 29.23 C118.74 37.36, 120.31 49.04, 119.98 58.08 C119.66 67.12, 117.03 75.74, 112.48 83.48 C107.92 91.21, 100.4 99.62, 92.65 104.49 C84.9 109.36, 75.23 111.7, 65.98 112.7 C56.72 113.7, 45.68 113.57, 37.13 110.48 C28.58 107.39, 20.51 101.23, 14.66 94.17 C8.82 87.1, 4.08 76.88, 2.06 68.1 C0.03 59.32, 0.05 49.94, 2.52 41.48 C4.98 33.02, 10.51 23.62, 16.83 17.35 C23.15 11.07, 36.49 6.02, 40.45 3.83 C44.41 1.64, 40.35 3.2, 40.61 4.21" stroke="#1e1e1e" stroke-width="1" fill="none"/></g><g transform="translate(783.8319263349838 47.888679355181665) rotate(0 25.241666793823242 24.671052631578917)"><text x="25.241666793823242" y="0" font-family="Virgil, Segoe UI Emoji" font-size="19.736842105263143px" fill="#1e1e1e" text-anchor="middle" style="white-space: pre;" direction="ltr" dominant-baseline="text-before-edge">EOA </text><text x="25.241666793823242" y="24.67105263157893" font-family="Virgil, Segoe UI Emoji" font-size="19.736842105263143px" fill="#1e1e1e" text-anchor="middle" style="white-space: pre;" direction="ltr" dominant-baseline="text-before-edge">#2</text></g><g stroke-linecap="round" transform="translate(224.0860330978926 12.364045820530976) rotate(31.674983890173742 21.0307538993672 102.30111940110416)"><path d="M18.09 1.85 C20.81 -1.9, 23.17 0.35, 26.14 4.47 C29.11 8.59, 33.38 16.54, 35.94 26.57 C38.5 36.61, 40.48 50.93, 41.5 64.68 C42.51 78.44, 42.41 94.41, 42.04 109.08 C41.67 123.75, 40.71 139.65, 39.26 152.71 C37.81 165.78, 35.9 179.03, 33.37 187.46 C30.83 195.89, 27.24 201.19, 24.06 203.29 C20.87 205.39, 17.13 204.33, 14.26 200.05 C11.39 195.77, 8.85 187.59, 6.86 177.61 C4.87 167.64, 3.56 153.97, 2.32 140.2 C1.09 126.43, -0.69 109.84, -0.54 94.98 C-0.4 80.12, 1.51 64.02, 3.2 51.06 C4.88 38.09, 6.96 25.72, 9.59 17.18 C12.22 8.65, 17.1 2.28, 18.98 -0.14 C20.86 -2.57, 20.93 0.95, 20.85 2.62 M24.08 0.13 C27.21 0.8, 31.89 9.83, 34.48 18.54 C37.08 27.24, 38.41 39.27, 39.65 52.34 C40.88 65.42, 41.59 82.08, 41.9 97 C42.21 111.92, 42.49 128.37, 41.49 141.87 C40.5 155.36, 38.41 168.07, 35.92 177.97 C33.43 187.88, 29.61 197.24, 26.56 201.3 C23.52 205.36, 20.81 204.81, 17.67 202.33 C14.54 199.85, 10.13 194.65, 7.76 186.44 C5.39 178.23, 4.93 166.05, 3.43 153.08 C1.94 140.12, -0.87 123.3, -1.23 108.66 C-1.59 94.02, 0.15 79.12, 1.25 65.25 C2.36 51.37, 2.94 35.54, 5.38 25.42 C7.83 15.31, 12.68 8.65, 15.93 4.56 C19.18 0.48, 23.67 1.05, 24.87 0.91 C26.07 0.78, 23.25 2.01, 23.12 3.73" stroke="#1e1e1e" stroke-width="1" fill="none"/></g><g stroke-linecap="round" transform="translate(250.22435309685818 46.37077831736269) rotate(31.674983890173742 17.84998901974467 83.01350257786089)"><path d="M10.54 6.32 C12.83 0.18, 16.81 -1.67, 19.49 -0.61 C22.17 0.45, 24.21 6.06, 26.63 12.68 C29.05 19.31, 32.42 28.1, 33.98 39.12 C35.55 50.14, 35.95 65.73, 36.04 78.79 C36.13 91.84, 35.86 105.82, 34.53 117.45 C33.2 129.09, 30.41 140.75, 28.07 148.59 C25.73 156.42, 23.15 162.26, 20.49 164.46 C17.83 166.66, 14.56 165.59, 12.09 161.79 C9.61 157.98, 7.41 150.71, 5.64 141.64 C3.86 132.56, 2.48 119.54, 1.44 107.33 C0.41 95.12, -1.06 80.81, -0.59 68.39 C-0.12 55.96, 2.15 43.49, 4.29 32.79 C6.42 22.1, 10.3 9.12, 12.22 4.21 C14.14 -0.69, 15.79 2.24, 15.79 3.34 M22.55 0.4 C25.1 1.88, 27.34 10.71, 29.52 19.07 C31.7 27.44, 34.62 38.8, 35.63 50.57 C36.64 62.34, 35.75 77.18, 35.57 89.68 C35.39 102.19, 35.91 114.94, 34.54 125.6 C33.18 136.26, 30.15 147.16, 27.4 153.63 C24.64 160.1, 20.9 163.67, 18.01 164.42 C15.12 165.16, 12.21 162.98, 10.05 158.09 C7.89 153.2, 6.89 145.36, 5.06 135.08 C3.24 124.81, -0.37 109.5, -0.9 96.43 C-1.42 83.36, 0.63 68.64, 1.91 56.68 C3.19 44.72, 4.91 33.51, 6.79 24.68 C8.66 15.86, 10.82 7.43, 13.17 3.72 C15.53 0.01, 19.55 2.56, 20.93 2.43 C22.31 2.31, 21.45 1.95, 21.45 2.97" stroke="#1e1e1e" stroke-width="1" fill="none"/></g><g stroke-linecap="round" transform="translate(274.2242920326777 65.56424157872507) rotate(31.674983890173742 16.830485108431105 72.95599825361852)"><path d="M16.72 -0.76 C19.44 -2.36, 22.7 1.94, 24.97 7.47 C27.23 13, 28.96 22.05, 30.29 32.42 C31.62 42.78, 32.81 57.26, 32.95 69.66 C33.1 82.06, 32.44 95.99, 31.16 106.84 C29.89 117.69, 27.69 128.31, 25.31 134.74 C22.92 141.16, 19.41 144.75, 16.85 145.38 C14.29 146, 12.44 144.08, 9.94 138.51 C7.44 132.93, 3.44 122.12, 1.84 111.92 C0.25 101.72, 0.27 89.3, 0.37 77.32 C0.47 65.33, 1.18 51.09, 2.45 39.99 C3.71 28.89, 5.12 17.24, 7.94 10.7 C10.75 4.16, 17.33 2.07, 19.35 0.75 C21.37 -0.56, 20.2 1.57, 20.06 2.79 M9.08 4.05 C11.05 -1.42, 14.98 -0.54, 17.87 1.12 C20.76 2.77, 24.12 6.67, 26.42 13.97 C28.71 21.27, 30.24 33.52, 31.64 44.91 C33.04 56.3, 34.98 69.9, 34.82 82.3 C34.67 94.7, 32.88 109.42, 30.71 119.3 C28.53 129.18, 24.27 137.06, 21.77 141.57 C19.27 146.09, 18.31 148.44, 15.69 146.37 C13.07 144.3, 8.26 136.79, 6.05 129.15 C3.83 121.52, 3.58 111.36, 2.4 100.54 C1.21 89.72, -1.48 76.26, -1.09 64.25 C-0.71 52.24, 2.85 38.14, 4.69 28.48 C6.52 18.83, 8.81 10.11, 9.9 6.32 C10.99 2.52, 11.02 4.65, 11.21 5.7" stroke="#1e1e1e" stroke-width="1" fill="none"/></g><g stroke-linecap="round" transform="translate(294.58947616913554 91.05286963743004) rotate(31.674983890173742 18.203649905467955 58.0301990209627)"><path d="M11.9 2.65 C14.92 -1.31, 20.2 -0.36, 23.39 2.21 C26.57 4.77, 28.92 10.68, 31.01 18.05 C33.09 25.42, 35.23 36.19, 35.88 46.43 C36.53 56.67, 36.1 69.52, 34.91 79.5 C33.71 89.48, 31.53 100.37, 28.72 106.29 C25.91 112.21, 21.41 114.79, 18.04 115.03 C14.67 115.27, 11.15 112.85, 8.51 107.74 C5.87 102.63, 3.6 93.66, 2.18 84.36 C0.76 75.07, -0.23 62.47, -0.01 51.98 C0.21 41.5, 0.92 30.17, 3.49 21.47 C6.07 12.76, 12.92 3, 15.44 -0.26 C17.96 -3.51, 18.61 0.76, 18.61 1.94 M20.4 0.07 C23.74 0.91, 28.67 8.17, 31.41 15.44 C34.16 22.71, 36.06 33.73, 36.86 43.68 C37.67 53.63, 37.4 65.49, 36.23 75.12 C35.06 84.76, 32.48 94.78, 29.86 101.49 C27.24 108.2, 23.85 113.85, 20.5 115.39 C17.16 116.94, 12.91 115.1, 9.81 110.76 C6.7 106.42, 3.62 98.16, 1.88 89.37 C0.13 80.58, -1.03 68.65, -0.67 58.01 C-0.3 47.36, 2.12 34.13, 4.07 25.5 C6.02 16.87, 8.03 10.27, 11.04 6.21 C14.04 2.14, 20.68 1.91, 22.1 1.1 C23.52 0.3, 19.69 0.42, 19.57 1.38" stroke="#1e1e1e" stroke-width="1" fill="none"/></g><g stroke-linecap="round" transform="translate(316.0276170130744 113.49661638762382) rotate(31.674983890173742 14.592815924070749 47.76093478366374)"><path d="M16.08 0.22 C18.91 0.94, 23.12 7.16, 25.24 13.69 C27.37 20.21, 28.36 30.16, 28.83 39.36 C29.3 48.56, 29.15 60.45, 28.06 68.89 C26.97 77.33, 24.98 85.77, 22.27 90.01 C19.55 94.26, 14.65 95.53, 11.77 94.34 C8.89 93.16, 6.92 89.23, 4.97 82.89 C3.03 76.55, 0.6 65.54, 0.12 56.31 C-0.35 47.07, 0.98 35.99, 2.13 27.46 C3.28 18.93, 4.45 9.53, 7 5.13 C9.56 0.72, 15.58 1.22, 17.49 1.05 C19.4 0.88, 18.34 3.23, 18.46 4.12 M9.8 3.77 C12.37 -0.07, 17.01 -0.8, 19.48 1.39 C21.95 3.58, 23.18 9.64, 24.61 16.9 C26.05 24.16, 27.73 35.51, 28.1 44.98 C28.47 54.45, 28.13 65.93, 26.84 73.7 C25.56 81.46, 22.98 88.3, 20.4 91.56 C17.83 94.82, 14.18 95.79, 11.37 93.25 C8.56 90.71, 5.22 83.69, 3.55 76.33 C1.87 68.96, 1.61 58.09, 1.31 49.03 C1.01 39.97, 0.32 29.7, 1.75 21.95 C3.17 14.2, 8.78 5.3, 9.87 2.54 C10.95 -0.22, 8.02 4.46, 8.25 5.37" stroke="#1e1e1e" stroke-width="1" fill="none"/></g><g stroke-linecap="round" transform="translate(333.2589910954092 132.93767698449778) rotate(31.674983890173742 11.241769877248089 36.91751738003617)"><path d="M7.58 1.99 C9.6 -0.99, 11.76 0.26, 14.13 2.99 C16.5 5.72, 20.38 11.6, 21.81 18.36 C23.25 25.13, 23.42 35.68, 22.72 43.59 C22.03 51.51, 19.45 60.87, 17.64 65.84 C15.82 70.81, 13.98 73.45, 11.81 73.42 C9.64 73.39, 6.68 70.75, 4.63 65.66 C2.57 60.57, 0.14 50.55, -0.53 42.87 C-1.2 35.19, -1.03 26.67, 0.63 19.55 C2.28 12.44, 7.72 3.28, 9.4 0.18 C11.07 -2.91, 10.59 0.34, 10.68 0.98 M7.82 0.43 C10.2 -2.28, 14.83 -0.12, 17.02 3.34 C19.21 6.8, 20.22 14.42, 20.95 21.17 C21.69 27.92, 22.13 36.24, 21.43 43.83 C20.72 51.43, 18.73 61.63, 16.74 66.75 C14.75 71.88, 11.83 74.95, 9.48 74.58 C7.13 74.21, 4.29 70.1, 2.63 64.54 C0.97 58.98, -0.42 48.95, -0.47 41.23 C-0.52 33.51, 1.12 25.04, 2.34 18.22 C3.56 11.39, 6.03 2.95, 6.85 0.28 C7.68 -2.39, 6.89 1.32, 7.29 2.18" stroke="#1e1e1e" stroke-width="1" fill="none"/></g><g stroke-linecap="round" transform="translate(344.6311588654754 140.47001947626825) rotate(31.674983890173742 11.241769877248089 36.91751738003617)"><path d="M9.77 0.61 C12.16 -0.44, 16.67 1.36, 18.62 5.97 C20.58 10.58, 20.88 20.47, 21.49 28.29 C22.1 36.1, 23.29 45.95, 22.28 52.85 C21.27 59.76, 17.86 66.59, 15.44 69.7 C13.03 72.82, 9.97 73.65, 7.78 71.56 C5.59 69.47, 3.51 63.4, 2.3 57.19 C1.1 50.98, 0.23 42.2, 0.57 34.28 C0.91 26.36, 2.48 15.33, 4.36 9.69 C6.25 4.06, 10.56 1.98, 11.89 0.48 C13.22 -1.03, 12.43 0.2, 12.35 0.67 M12.06 1.26 C14.22 0.56, 16.05 2.83, 17.59 7.76 C19.13 12.69, 20.87 22.93, 21.28 30.83 C21.69 38.73, 21.19 48.26, 20.04 55.15 C18.9 62.05, 16.51 69.6, 14.44 72.2 C12.37 74.8, 9.73 73.27, 7.63 70.76 C5.52 68.24, 3.29 63.71, 1.81 57.1 C0.33 50.49, -1.81 39.24, -1.27 31.12 C-0.72 23.01, 3.14 13.62, 5.08 8.41 C7.02 3.2, 9.35 1.11, 10.38 -0.15 C11.4 -1.41, 11.25 0.21, 11.22 0.86" stroke="#1e1e1e" stroke-width="1" fill="none"/></g><g stroke-linecap="round" transform="translate(358.3455063610123 144.88401244656404) rotate(31.674983890173742 11.241769877248089 36.91751738003617)"><path d="M17.51 4.93 C19.55 8.23, 21.67 16.08, 22.46 23.29 C23.26 30.5, 23.19 40.68, 22.29 48.2 C21.39 55.71, 19.19 64.07, 17.09 68.39 C14.98 72.7, 11.93 75.35, 9.69 74.1 C7.45 72.85, 5.33 67.05, 3.66 60.9 C2 54.76, -0.22 45.17, -0.32 37.23 C-0.42 29.29, 1.48 19.43, 3.06 13.26 C4.65 7.09, 6.63 1.16, 9.21 0.19 C11.79 -0.77, 17.02 5.56, 18.55 7.48 C20.08 9.4, 18.47 11.4, 18.4 11.73 M10.59 -0.15 C12.7 -0.49, 16.84 3.67, 18.65 8.79 C20.46 13.91, 20.82 22.96, 21.45 30.59 C22.08 38.23, 23.42 47.77, 22.45 54.59 C21.48 61.4, 18.22 68.68, 15.61 71.47 C13.01 74.26, 8.96 73.86, 6.82 71.31 C4.67 68.75, 3.73 63.1, 2.74 56.12 C1.76 49.15, 0.93 37.5, 0.91 29.44 C0.88 21.38, 1.04 12.89, 2.59 7.76 C4.14 2.63, 8.78 -0.07, 10.22 -1.34 C11.66 -2.62, 11.03 -0.77, 11.22 0.12" stroke="#1e1e1e" stroke-width="1" fill="none"/></g><g stroke-linecap="round" transform="translate(372.30623225377144 152.85661339011415) rotate(31.674983890173742 11.241769877248089 36.91751738003617)"><path d="M7.48 1.53 C9.69 -1.13, 14.33 -1.04, 16.65 2.31 C18.96 5.67, 20.52 14.47, 21.37 21.67 C22.21 28.88, 22.33 37.99, 21.72 45.54 C21.11 53.09, 19.58 62.38, 17.71 66.98 C15.84 71.58, 12.87 73.59, 10.49 73.16 C8.11 72.72, 5.25 69.72, 3.42 64.36 C1.59 59, -0.24 49.09, -0.51 40.99 C-0.77 32.9, 0.21 22.4, 1.84 15.78 C3.47 9.16, 7.71 3.7, 9.3 1.28 C10.88 -1.14, 11.4 0.95, 11.35 1.25 M8.1 0.82 C10.45 -1.43, 13.6 0.1, 15.9 3.53 C18.21 6.96, 20.87 14.14, 21.92 21.39 C22.97 28.64, 22.91 39.22, 22.18 47.02 C21.45 54.83, 19.31 63.55, 17.53 68.22 C15.76 72.89, 14 75.68, 11.52 75.03 C9.03 74.39, 4.31 70.18, 2.63 64.35 C0.94 58.51, 1.66 47.97, 1.41 40.01 C1.15 32.04, 0.07 23.09, 1.1 16.58 C2.14 10.07, 6.55 3.56, 7.63 0.96 C8.71 -1.64, 7.61 0.44, 7.57 0.98" stroke="#1e1e1e" stroke-width="1" fill="none"/></g><g stroke-linecap="round" transform="translate(383.4132183686738 158.34504215164054) rotate(31.674983890173742 11.241769877248089 36.91751738003617)"><path d="M15.1 2.17 C17.07 4.57, 19.74 12.66, 20.77 19.91 C21.79 27.16, 21.81 37.87, 21.26 45.68 C20.72 53.49, 19.23 62.02, 17.48 66.76 C15.72 71.5, 12.99 74.67, 10.73 74.14 C8.47 73.61, 5.56 69.17, 3.91 63.59 C2.27 58.02, 1.03 48.46, 0.86 40.71 C0.68 32.96, 1.51 23.73, 2.86 17.1 C4.21 10.47, 6.54 2.82, 8.96 0.93 C11.38 -0.96, 16.03 4.75, 17.39 5.76 C18.76 6.77, 17.3 6.67, 17.15 7 M8.42 -0.29 C10.86 -1.61, 15.28 1.65, 17.63 6.06 C19.98 10.48, 21.75 18.97, 22.51 26.2 C23.27 33.42, 22.95 42.01, 22.2 49.41 C21.46 56.8, 20.12 66.85, 18.03 70.59 C15.94 74.32, 12.05 73.41, 9.65 71.82 C7.26 70.23, 5.42 66.84, 3.67 61.06 C1.92 55.27, -0.55 45.23, -0.84 37.11 C-1.13 28.98, 0.44 18.26, 1.95 12.3 C3.47 6.34, 6.84 3.12, 8.26 1.34 C9.68 -0.43, 10.49 1.01, 10.48 1.64" stroke="#1e1e1e" stroke-width="1" fill="none"/></g><g stroke-linecap="round" transform="translate(393.6921470895677 164.78471750578638) rotate(31.674983890173742 11.241769877248089 36.91751738003617)"><path d="M8.76 -0.04 C11.14 -1.47, 15.17 1.49, 17.42 5.78 C19.68 10.08, 21.52 18.43, 22.29 25.73 C23.06 33.04, 22.83 42.23, 22.05 49.62 C21.27 57.02, 19.69 66.34, 17.59 70.11 C15.5 73.89, 11.86 73.82, 9.48 72.27 C7.09 70.71, 4.96 66.68, 3.29 60.78 C1.61 54.88, -0.38 44.91, -0.56 36.86 C-0.74 28.81, 0.47 18.5, 2.21 12.46 C3.96 6.42, 8.17 2.52, 9.89 0.63 C11.62 -1.27, 12.6 0.47, 12.58 1.1 M6.34 3.27 C8.48 0.07, 11.58 -1.52, 14.12 0.94 C16.65 3.4, 20.37 11.03, 21.53 18.03 C22.69 25.02, 21.47 35.1, 21.09 42.9 C20.71 50.71, 20.87 59.89, 19.24 64.84 C17.6 69.79, 13.72 72.4, 11.28 72.58 C8.84 72.77, 6.36 70.53, 4.6 65.97 C2.84 61.4, 1.03 53.04, 0.69 45.19 C0.35 37.33, 1.61 26.13, 2.57 18.82 C3.54 11.51, 5.82 3.82, 6.46 1.34 C7.1 -1.13, 6.35 3.38, 6.42 3.98" stroke="#1e1e1e" stroke-width="1" fill="none"/></g><g stroke-linecap="round" transform="translate(404.92232240308044 172.0524502539398) rotate(31.674983890173742 11.241769877248089 36.91751738003617)"><path d="M7.93 1.9 C10.16 -0.16, 14.62 0.6, 16.93 4.1 C19.23 7.61, 20.79 15.69, 21.79 22.92 C22.8 30.16, 23.64 39.97, 22.96 47.51 C22.28 55.05, 19.74 63.94, 17.71 68.18 C15.69 72.41, 13.28 73.97, 10.8 72.92 C8.32 71.87, 4.77 67.44, 2.82 61.89 C0.87 56.33, -0.7 47.5, -0.9 39.6 C-1.1 31.7, -0.08 21.01, 1.64 14.49 C3.35 7.98, 8.12 2.86, 9.38 0.52 C10.65 -1.81, 9.19 -0.01, 9.25 0.48 M9.43 -1.02 C11.38 -2.14, 14.85 2.64, 17.12 7.14 C19.39 11.65, 22.25 18.51, 23.05 26.01 C23.86 33.52, 23.06 44.64, 21.96 52.17 C20.86 59.69, 18.79 67.72, 16.46 71.16 C14.14 74.6, 10.22 75.11, 8.02 72.8 C5.83 70.48, 4.54 63.82, 3.3 57.27 C2.05 50.72, 0.8 41.01, 0.54 33.51 C0.29 26.01, 0.3 17.6, 1.74 12.28 C3.19 6.97, 7.6 3.39, 9.19 1.61 C10.77 -0.16, 11.24 1.31, 11.26 1.63" stroke="#1e1e1e" stroke-width="1" fill="none"/></g><g stroke-linecap="round" transform="translate(416.795771312685 175.69998042953353) rotate(31.674983890173742 11.241769877248089 36.91751738003617)"><path d="M9.62 -0.61 C11.68 -1.78, 15.06 2.37, 17.24 6.84 C19.42 11.31, 21.95 18.68, 22.71 26.21 C23.48 33.74, 22.87 44.61, 21.82 52.04 C20.76 59.47, 18.65 67.33, 16.38 70.79 C14.11 74.24, 10.45 74.96, 8.2 72.79 C5.96 70.62, 4.23 64.25, 2.92 57.76 C1.62 51.27, 0.49 41.46, 0.37 33.84 C0.25 26.21, 0.57 17.46, 2.2 11.98 C3.84 6.5, 8.52 2.76, 10.2 0.97 C11.88 -0.83, 12.29 0.78, 12.3 1.2 M8.76 0.82 C11.28 -1.22, 15.1 -0.25, 17.28 3.54 C19.47 7.34, 21.18 16.37, 21.86 23.58 C22.54 30.78, 22.12 39.61, 21.37 46.77 C20.62 53.93, 19.2 61.93, 17.36 66.54 C15.52 71.16, 12.82 75.02, 10.33 74.46 C7.84 73.9, 3.98 68.98, 2.41 63.19 C0.85 57.41, 0.9 47.69, 0.94 39.73 C0.98 31.77, 1.1 21.9, 2.64 15.43 C4.19 8.96, 9.33 3.02, 10.21 0.93 C11.08 -1.16, 8.18 2.46, 7.9 2.89" stroke="#1e1e1e" stroke-width="1" fill="none"/></g><g stroke-linecap="round" transform="translate(603.7389194754214 216.45409447503937) rotate(31.674983890173742 21.030753899367255 102.30111940110413)"><path d="M28.24 7.41 C31.28 11.14, 35.01 22.6, 37.32 33.53 C39.62 44.47, 41.38 58.72, 42.08 73.01 C42.78 87.29, 42.21 104.52, 41.51 119.25 C40.82 133.97, 39.51 149.33, 37.92 161.37 C36.34 173.4, 34.54 184.24, 31.99 191.46 C29.45 198.68, 25.68 203.95, 22.67 204.71 C19.66 205.47, 16.96 201.65, 13.92 196.04 C10.88 190.44, 6.7 181.87, 4.42 171.1 C2.13 160.33, 0.87 145.62, 0.2 131.4 C-0.47 117.18, -0.24 100.63, 0.42 85.78 C1.08 70.93, 2.49 54.44, 4.17 42.3 C5.86 30.15, 7.94 20.07, 10.53 12.91 C13.12 5.75, 16.14 -0.91, 19.69 -0.68 C23.25 -0.45, 29.65 10.29, 31.84 14.28 C34.03 18.27, 33.09 21.71, 32.85 23.26 M15.43 5.43 C18.45 -0.47, 22.53 -1.23, 25.38 0.63 C28.22 2.48, 30.15 8.02, 32.5 16.55 C34.85 25.09, 38.08 38.84, 39.48 51.83 C40.88 64.81, 40.7 79.57, 40.88 94.46 C41.06 109.35, 41.61 127.47, 40.56 141.19 C39.5 154.9, 36.6 167, 34.52 176.75 C32.43 186.49, 30.77 195.08, 28.05 199.68 C25.32 204.28, 21.58 206.31, 18.18 204.35 C14.78 202.38, 10.31 196.63, 7.63 187.88 C4.95 179.13, 3.34 164.73, 2.09 151.85 C0.83 138.97, 0.03 125.16, 0.1 110.62 C0.18 96.09, 1.61 78.79, 2.54 64.64 C3.47 50.49, 3.77 35.69, 5.67 25.73 C7.56 15.78, 12.34 8.01, 13.9 4.9 C15.47 1.8, 14.71 5.56, 15.05 7.1" stroke="#1e1e1e" stroke-width="1" fill="none"/></g><g stroke-linecap="round" transform="translate(583.962129235701 221.0225956246943) rotate(31.674983890173742 17.849989019744612 83.01350257786089)"><path d="M25.17 5.49 C27.98 8.85, 30.68 18.55, 32.32 28.43 C33.96 38.32, 34.61 52.11, 35.02 64.8 C35.44 77.5, 35.37 92.2, 34.82 104.58 C34.27 116.96, 33.49 129.59, 31.73 139.09 C29.97 148.58, 26.84 157.33, 24.26 161.55 C21.67 165.77, 19.2 166.18, 16.23 164.4 C13.26 162.62, 8.94 158.15, 6.44 150.87 C3.94 143.58, 2.29 132.2, 1.24 120.68 C0.19 109.16, -0.09 94.85, 0.13 81.73 C0.34 68.61, 1.27 53.28, 2.53 41.96 C3.8 30.63, 5.48 20.85, 7.72 13.78 C9.96 6.71, 13 0.56, 15.95 -0.44 C18.9 -1.45, 23.95 5.97, 25.43 7.77 C26.91 9.56, 25.01 8.98, 24.82 10.32 M13.17 4.6 C15.96 -0.47, 19.76 -1.11, 22.32 0.89 C24.87 2.88, 26.5 8.42, 28.51 16.57 C30.52 24.72, 33.37 37.89, 34.37 49.79 C35.38 61.7, 34.75 75.03, 34.53 88 C34.31 100.96, 34.42 116.66, 33.04 127.59 C31.66 138.51, 28.45 147.23, 26.23 153.53 C24 159.84, 22.27 164.43, 19.7 165.42 C17.13 166.4, 13.69 164.49, 10.78 159.43 C7.87 154.37, 4.1 145.6, 2.23 135.05 C0.37 124.51, -0.2 108.86, -0.42 96.16 C-0.65 83.46, -0.24 70.88, 0.89 58.85 C2.03 46.82, 4.6 33.42, 6.37 23.99 C8.14 14.56, 10.64 5.33, 11.53 2.28 C12.43 -0.78, 11.48 3.99, 11.75 5.66" stroke="#1e1e1e" stroke-width="1" fill="none"/></g><g stroke-linecap="round" transform="translate(562.0011981225082 221.94414101181644) rotate(31.674983890173742 16.830485108431162 72.95599825361847)"><path d="M14.57 0.29 C17 -2.81, 19.7 -0.23, 22.16 3.95 C24.63 8.12, 27.35 16.13, 29.35 25.33 C31.35 34.52, 33.53 47.11, 34.16 59.13 C34.8 71.15, 34.07 86.02, 33.17 97.43 C32.26 108.83, 31.08 119.58, 28.72 127.56 C26.36 135.53, 22.02 142.79, 19 145.29 C15.98 147.79, 13.09 146.59, 10.62 142.55 C8.15 138.52, 5.85 130.56, 4.18 121.07 C2.5 111.57, 1.18 97.62, 0.58 85.59 C-0.01 73.57, -0.23 60.37, 0.63 48.9 C1.48 37.42, 3.37 24.7, 5.72 16.74 C8.06 8.78, 13.26 3.62, 14.71 1.15 C16.16 -1.32, 14.44 0.64, 14.41 1.93 M12.45 4.16 C15.28 -0.55, 19.2 -1.03, 21.77 1.32 C24.34 3.66, 25.99 9.76, 27.88 18.22 C29.77 26.68, 32.43 40.28, 33.13 52.06 C33.83 63.84, 32.76 76.9, 32.09 88.88 C31.42 100.86, 30.96 115.09, 29.1 123.94 C27.25 132.78, 23.5 138.68, 20.97 141.95 C18.44 145.21, 16.46 145.99, 13.91 143.53 C11.37 141.07, 8.14 135.21, 5.7 127.2 C3.25 119.19, 0.23 107.48, -0.76 95.47 C-1.76 83.47, -1.15 67.06, -0.26 55.18 C0.63 43.3, 2.38 32.85, 4.59 24.19 C6.79 15.53, 11.93 6.72, 12.99 3.22 C14.04 -0.27, 11.17 2, 10.91 3.24" stroke="#1e1e1e" stroke-width="1" fill="none"/></g><g stroke-linecap="round" transform="translate(538.8896843919774 226.30711141842323) rotate(31.674983890173742 18.203649905467955 58.0301990209627)"><path d="M12.62 2.36 C15.34 -1.19, 19.54 -0.76, 22.87 2.03 C26.2 4.83, 30.31 11.26, 32.61 19.14 C34.91 27.03, 36.12 39.1, 36.65 49.37 C37.18 59.64, 37.34 71.12, 35.78 80.75 C34.22 90.37, 30.29 101.09, 27.29 107.11 C24.29 113.12, 20.9 116.71, 17.79 116.83 C14.69 116.95, 11.29 113.63, 8.66 107.82 C6.04 102, 3.5 91.48, 2.03 81.94 C0.56 72.4, -0.53 60.96, -0.17 50.59 C0.18 40.21, 1.52 27.94, 4.15 19.7 C6.78 11.46, 13.45 4.2, 15.61 1.14 C17.77 -1.93, 17.11 0.27, 17.09 1.3 M13.42 3.51 C16.69 -0.5, 21.3 -0.82, 24.29 1.62 C27.29 4.06, 29.38 10.17, 31.4 18.16 C33.42 26.15, 36.01 39.07, 36.39 49.55 C36.78 60.03, 35.07 71.35, 33.7 81.04 C32.33 90.73, 30.85 101.99, 28.17 107.7 C25.49 113.4, 20.75 115.43, 17.63 115.26 C14.5 115.08, 11.99 111.94, 9.4 106.67 C6.81 101.39, 3.87 92.78, 2.08 83.6 C0.29 74.43, -1.59 62.35, -1.33 51.61 C-1.07 40.88, 1.25 27.2, 3.63 19.19 C6.02 11.18, 11.21 6.15, 12.95 3.56 C14.69 0.98, 14.17 3.16, 14.07 3.69" stroke="#1e1e1e" stroke-width="1" fill="none"/></g><g stroke-linecap="round" transform="translate(524.6732115108332 224.40189314282725) rotate(31.674983890173742 14.592815924070692 47.76093478366374)"><path d="M7.57 5.32 C10.05 0.59, 14.56 -1.29, 17.51 0.13 C20.45 1.56, 23.19 7.41, 25.25 13.89 C27.32 20.36, 29.67 29.71, 29.92 39 C30.16 48.28, 28.26 60.96, 26.73 69.6 C25.2 78.24, 23.1 86.51, 20.74 90.85 C18.38 95.18, 15.27 97.25, 12.59 95.62 C9.92 94, 6.8 87.71, 4.68 81.09 C2.56 74.47, 0.43 65.13, -0.12 55.9 C-0.68 46.66, -0.34 34.52, 1.36 25.71 C3.07 16.89, 8.47 6.97, 10.12 2.99 C11.77 -0.99, 11.26 0.98, 11.27 1.81 M10.87 3.07 C13.76 -0.48, 17.95 -0.6, 20.49 2.05 C23.04 4.7, 24.63 11.15, 26.11 18.98 C27.59 26.8, 29.55 39.5, 29.38 49 C29.21 58.5, 26.86 68.38, 25.1 75.98 C23.34 83.58, 21.49 91.93, 18.82 94.61 C16.15 97.3, 11.62 95.43, 9.07 92.1 C6.52 88.77, 4.97 82, 3.52 74.62 C2.07 67.24, 0.71 56.88, 0.36 47.82 C0.02 38.75, -0.09 28.08, 1.46 20.24 C3 12.41, 8.15 3.49, 9.65 0.79 C11.15 -1.91, 10.11 3.05, 10.48 4.03" stroke="#1e1e1e" stroke-width="1" fill="none"/></g><g stroke-linecap="round" transform="translate(514.143929522143 226.6476673532086) rotate(31.674983890173742 11.241769877248089 36.91751738003617)"><path d="M11 -0.22 C13.38 -1.31, 16.1 2.4, 18.1 6.84 C20.11 11.28, 22.62 18.72, 23.02 26.41 C23.42 34.1, 21.79 45.54, 20.52 52.98 C19.25 60.42, 17.42 67.7, 15.42 71.07 C13.42 74.45, 10.69 75.51, 8.51 73.23 C6.33 70.96, 3.83 63.96, 2.36 57.43 C0.89 50.89, -0.41 41.91, -0.29 34.03 C-0.17 26.14, 1.17 15.7, 3.1 10.1 C5.03 4.5, 9.97 1.96, 11.3 0.43 C12.62 -1.09, 11.13 0.24, 11.06 0.94 M8.49 2.6 C10.99 -0.38, 14.73 -0.31, 16.78 2.38 C18.84 5.07, 19.89 11.55, 20.82 18.76 C21.76 25.97, 23.05 37.77, 22.39 45.62 C21.73 53.47, 18.83 60.97, 16.86 65.86 C14.9 70.74, 12.96 75.41, 10.62 74.94 C8.27 74.48, 4.41 68.76, 2.81 63.09 C1.2 57.41, 1.08 48.44, 0.97 40.88 C0.87 33.32, 1.26 24.05, 2.18 17.72 C3.1 11.38, 5.62 5.65, 6.48 2.87 C7.34 0.09, 7.03 0.48, 7.34 1.03" stroke="#1e1e1e" stroke-width="1" fill="none"/></g><g stroke-linecap="round" transform="translate(502.77176175207705 219.11532486143824) rotate(31.674983890173742 11.241769877248089 36.91751738003617)"><path d="M10.98 0.35 C13.27 -0.68, 17.12 1.65, 18.83 6.39 C20.54 11.14, 20.92 20.86, 21.23 28.81 C21.54 36.75, 21.59 46.97, 20.7 54.05 C19.81 61.14, 17.93 68.42, 15.88 71.33 C13.83 74.25, 10.77 73.84, 8.38 71.54 C5.99 69.24, 2.97 64.13, 1.56 57.54 C0.15 50.95, -0.45 39.83, -0.09 32.02 C0.27 24.2, 1.89 15.96, 3.72 10.65 C5.55 5.34, 9.38 1.6, 10.88 0.17 C12.37 -1.27, 12.66 1.56, 12.69 2.05 M17.65 3.75 C19.58 6.46, 20.48 14.17, 21.22 21.66 C21.97 29.14, 22.99 41.01, 22.13 48.68 C21.27 56.35, 18.15 63.33, 16.07 67.66 C13.99 71.98, 11.98 75.78, 9.65 74.64 C7.33 73.5, 3.59 66.97, 2.13 60.81 C0.67 54.66, 0.79 45.33, 0.9 37.71 C1 30.1, 1.66 21.07, 2.74 15.13 C3.83 9.19, 5.23 4.09, 7.41 2.08 C9.59 0.06, 14.32 2.39, 15.83 3.05 C17.34 3.7, 16.26 5.26, 16.47 6.02" stroke="#1e1e1e" stroke-width="1" fill="none"/></g><g stroke-linecap="round" transform="translate(489.05741425654037 214.70133189114233) rotate(31.674983890173742 11.241769877248089 36.91751738003617)"><path d="M10.09 -0.13 C12.07 -1.93, 13.96 1.22, 15.8 5.34 C17.65 9.47, 20.11 17.23, 21.13 24.63 C22.16 32.02, 22.62 42.51, 21.98 49.71 C21.33 56.92, 19.43 63.88, 17.28 67.84 C15.13 71.8, 11.55 74.78, 9.1 73.5 C6.65 72.22, 4.04 66.11, 2.57 60.16 C1.09 54.21, 0.39 45.56, 0.24 37.81 C0.1 30.06, -0.14 19.83, 1.71 13.68 C3.56 7.54, 9.43 3.03, 11.35 0.93 C13.26 -1.17, 13.01 0.54, 13.2 1.06 M14.47 0.59 C16.53 2.76, 19.96 11.37, 21.08 18.3 C22.21 25.23, 21.63 34.23, 21.21 42.17 C20.79 50.12, 20.34 60.83, 18.58 65.98 C16.82 71.12, 12.92 73.18, 10.66 73.03 C8.41 72.88, 6.73 69.78, 5.04 65.08 C3.36 60.39, 1.42 52.33, 0.56 44.85 C-0.29 37.38, -1.07 27.53, -0.07 20.24 C0.92 12.96, 4.03 4.02, 6.53 1.16 C9.04 -1.71, 13.41 2.81, 14.97 3.08 C16.53 3.35, 16.16 2.6, 15.9 2.79" stroke="#1e1e1e" stroke-width="1" fill="none"/></g><g stroke-linecap="round" transform="translate(475.09668836378137 206.72873094759234) rotate(31.674983890173742 11.241769877248089 36.91751738003617)"><path d="M11.81 0.96 C13.84 1.76, 17.14 7, 18.94 12.85 C20.73 18.69, 22.35 28.41, 22.6 36.05 C22.85 43.69, 21.98 52.5, 20.43 58.68 C18.88 64.86, 15.74 71.45, 13.31 73.13 C10.88 74.81, 7.9 72.39, 5.86 68.76 C3.82 65.13, 2.11 58.51, 1.08 51.35 C0.06 44.2, -0.96 33.28, -0.29 25.83 C0.37 18.37, 2.71 10.78, 5.08 6.63 C7.45 2.48, 11.91 1.24, 13.9 0.92 C15.89 0.6, 16.88 3.9, 17.04 4.73 M9.31 1.02 C11.42 -0.72, 13.51 0.1, 15.57 4.08 C17.64 8.06, 20.8 17.55, 21.72 24.9 C22.64 32.25, 21.74 40.99, 21.11 48.19 C20.47 55.38, 19.79 63.74, 17.91 68.1 C16.03 72.45, 12.6 75.27, 9.83 74.32 C7.05 73.36, 3.01 68.71, 1.25 62.37 C-0.5 56.02, -0.91 44.18, -0.69 36.23 C-0.47 28.28, 0.75 20.61, 2.57 14.69 C4.38 8.78, 9.26 3.17, 10.17 0.73 C11.08 -1.71, 8.35 -0.6, 8.04 0.07" stroke="#1e1e1e" stroke-width="1" fill="none"/></g><g stroke-linecap="round" transform="translate(463.98970224887876 201.24030218606583) rotate(31.674983890173742 11.241769877248089 36.91751738003617)"><path d="M6.38 3.5 C8.62 0.23, 12.36 0.22, 14.81 2.38 C17.25 4.54, 19.84 9.83, 21.05 16.45 C22.26 23.07, 22.45 34.26, 22.05 42.09 C21.65 49.92, 20.32 58.08, 18.63 63.44 C16.94 68.79, 14.43 73.77, 11.91 74.24 C9.39 74.7, 5.49 70.98, 3.52 66.21 C1.55 61.44, 0.57 53.49, 0.1 45.62 C-0.37 37.76, -1.08 26.52, 0.71 19.02 C2.5 11.52, 8.72 3.48, 10.85 0.62 C12.98 -2.24, 13.68 1.36, 13.47 1.86 M4.93 3.58 C6.86 -0.16, 11.25 0.36, 13.66 2.05 C16.08 3.73, 17.79 7.67, 19.41 13.67 C21.03 19.68, 23.28 29.88, 23.36 38.08 C23.44 46.27, 21.91 56.71, 19.88 62.83 C17.86 68.95, 13.77 74.14, 11.2 74.79 C8.64 75.45, 6.27 71.05, 4.5 66.75 C2.72 62.46, 1 56.35, 0.57 49.03 C0.14 41.71, 1.19 30.51, 1.92 22.81 C2.65 15.11, 4.4 5.75, 4.94 2.83 C5.49 -0.09, 4.89 4.39, 5.16 5.28" stroke="#1e1e1e" stroke-width="1" fill="none"/></g><g stroke-linecap="round" transform="translate(453.7107735279851 194.80062683192) rotate(31.674983890173742 11.241769877248089 36.91751738003617)"><path d="M14.83 2.41 C17.2 4.01, 19.86 9.89, 21.06 16.52 C22.27 23.14, 22.46 34.34, 22.05 42.17 C21.64 50, 20.31 58.15, 18.62 63.49 C16.92 68.84, 14.41 73.79, 11.89 74.24 C9.37 74.68, 5.47 70.95, 3.5 66.16 C1.54 61.38, 0.56 53.41, 0.09 45.54 C-0.37 37.67, -0.6 26.04, 0.72 18.95 C2.04 11.87, 5.49 5.7, 8 3.05 C10.51 0.39, 14.61 3, 15.79 3.03 C16.97 3.05, 15.4 2.71, 15.06 3.18 M12.53 1.42 C14.89 1.79, 16.86 5.33, 18.67 10.81 C20.47 16.29, 23.03 26.13, 23.35 34.32 C23.68 42.51, 22.45 53.31, 20.61 59.94 C18.77 66.57, 14.85 72.67, 12.33 74.12 C9.81 75.56, 7.39 72.21, 5.49 68.61 C3.6 65.02, 1.62 59.6, 0.96 52.55 C0.31 45.51, 1.04 34.32, 1.54 26.35 C2.03 18.38, 2.29 9, 3.96 4.73 C5.63 0.46, 10.13 1.23, 11.56 0.72 C12.99 0.22, 12.34 1.18, 12.55 1.7" stroke="#1e1e1e" stroke-width="1" fill="none"/></g><g stroke-linecap="round" transform="translate(442.48059821447214 187.53289408376668) rotate(31.674983890173742 11.241769877248089 36.91751738003617)"><path d="M15.77 1.91 C17.87 4.23, 19.8 12.82, 20.85 19.81 C21.9 26.8, 22.49 36.06, 22.08 43.84 C21.67 51.62, 20.4 61.47, 18.38 66.49 C16.37 71.51, 12.47 74.16, 9.99 73.95 C7.52 73.73, 5.29 70.65, 3.54 65.21 C1.8 59.77, -0.34 49.24, -0.49 41.31 C-0.63 33.37, 1.21 24.09, 2.7 17.63 C4.19 11.16, 6.25 4.85, 8.46 2.53 C10.67 0.22, 14.71 3.12, 15.99 3.76 C17.27 4.41, 16.12 5.93, 16.14 6.4 M8.36 -0.14 C10.73 -2.3, 15.31 0.03, 17.6 4.17 C19.89 8.31, 21.64 17.01, 22.1 24.69 C22.57 32.38, 21.34 43.17, 20.37 50.27 C19.41 57.37, 18.13 63.29, 16.32 67.32 C14.51 71.34, 11.6 75.45, 9.51 74.42 C7.43 73.39, 5.58 67.52, 3.8 61.15 C2.03 54.77, -0.73 44.01, -1.12 36.17 C-1.5 28.33, -0.19 19.9, 1.52 14.1 C3.23 8.3, 7.8 3.51, 9.14 1.38 C10.48 -0.76, 9.42 0.67, 9.56 1.32" stroke="#1e1e1e" stroke-width="1" fill="none"/></g><g stroke-linecap="round" transform="translate(430.6071493048678 183.88536390817285) rotate(31.674983890173742 11.241769877248089 36.91751738003617)"><path d="M14.28 1.84 C16.43 3.64, 19.17 9.49, 20.56 16.2 C21.95 22.92, 23.06 34.11, 22.63 42.12 C22.21 50.13, 19.86 58.81, 18.02 64.24 C16.18 69.68, 13.96 74.5, 11.59 74.72 C9.22 74.94, 5.54 70.48, 3.82 65.57 C2.09 60.67, 1.56 52.78, 1.25 45.3 C0.93 37.81, 1.05 27.79, 1.93 20.67 C2.81 13.54, 4.25 5.19, 6.55 2.53 C8.84 -0.13, 13.69 3.7, 15.69 4.69 C17.7 5.68, 18.57 7.97, 18.57 8.49 M16.38 2.25 C18.74 4.94, 20.82 13.35, 21.55 20.64 C22.27 27.93, 21.42 38.63, 20.74 45.99 C20.05 53.35, 19.08 60, 17.44 64.81 C15.79 69.62, 12.98 74.94, 10.86 74.86 C8.75 74.78, 6.73 70.04, 4.75 64.33 C2.77 58.62, -0.34 48.37, -1.01 40.61 C-1.68 32.84, -0.75 24.07, 0.73 17.71 C2.2 11.36, 5.3 4.99, 7.83 2.48 C10.35 -0.03, 14.52 2.35, 15.89 2.66 C17.26 2.97, 16.01 3.54, 16.03 4.35" stroke="#1e1e1e" stroke-width="1" fill="none"/></g><g transform="translate(88.04051346199333 210.25312902795423) rotate(290.41682429806434 23.91666603088379 15.173048731610692)"><text x="0" y="0" font-family="Virgil, Segoe UI Emoji" font-size="24.276877970577097px" fill="#1e1e1e" text-anchor="start" style="white-space: pre;" direction="ltr" dominant-baseline="text-before-edge">burn</text></g><g transform="translate(779.7713666606894 216.40499900770135) rotate(290.41682429806434 22.84166717529297 15.173048731610692)"><text x="0" y="0" font-family="Virgil, Segoe UI Emoji" font-size="24.276877970577097px" fill="#1e1e1e" text-anchor="start" style="white-space: pre;" direction="ltr" dominant-baseline="text-before-edge">mint</text></g></svg>